<svg xmlns="http://www.w3.org/2000/svg" xmlns:xlink="http://www.w3.org/1999/xlink" width="1796pt" height="503pt" viewBox="0.00 0.00 1796.00 503.00">
<g id="graph0" class="graph" transform="scale(1 1) rotate(0) translate(4 499.32)">
<title>airline_schedule</title>
<polygon fill="white" stroke="none" points="-4,4 -4,-499.32 1792.37,-499.32 1792.37,4 -4,4"/>
<!-- HND -->
<g id="node1" class="node">
<title>HND</title>
<polygon fill="none" stroke="black" points="133.29,-46.33 86.96,-46.33 86.96,0 133.29,0 133.29,-46.33"/>
<text xml:space="preserve" text-anchor="middle" x="110.12" y="-18.97" font-family="Helvetica,Arial,sans-serif" font-size="14.00">HND</text>
</g>
<!-- NRT -->
<g id="node2" class="node">
<title>NRT</title>
<polygon fill="none" stroke="black" points="295.33,-45.17 251.33,-45.17 251.33,-1.17 295.33,-1.17 295.33,-45.17"/>
<text xml:space="preserve" text-anchor="middle" x="273.33" y="-18.97" font-family="Helvetica,Arial,sans-serif" font-size="14.00">NRT</text>
</g>
<!-- HND&#45;&gt;NRT -->
<g id="edge1" class="edge">
<title>HND-&gt;NRT</title>
<path fill="none" stroke="black" d="M133.54,-23.17C161.08,-23.17 208.02,-23.17 239.6,-23.17"/>
<polygon fill="black" stroke="black" points="239.36,-26.67 249.36,-23.17 239.36,-19.67 239.36,-26.67"/>
<text xml:space="preserve" text-anchor="middle" x="191.14" y="-27.37" font-family="Helvetica,Arial,sans-serif" font-size="14.00">a1 (JL6001)</text>
</g>
<!-- ICN -->
<g id="node3" class="node">
<title>ICN</title>
<polygon fill="none" stroke="black" points="472.5,-43.22 432.39,-43.22 432.39,-3.11 472.5,-3.11 472.5,-43.22"/>
<text xml:space="preserve" text-anchor="middle" x="452.44" y="-18.97" font-family="Helvetica,Arial,sans-serif" font-size="14.00">ICN</text>
</g>
<!-- NRT&#45;&gt;ICN -->
<g id="edge2" class="edge">
<title>NRT-&gt;ICN</title>
<path fill="none" stroke="black" d="M295.69,-23.17C326.85,-23.17 384.95,-23.17 420.7,-23.17"/>
<polygon fill="black" stroke="black" points="420.39,-26.67 430.39,-23.17 420.39,-19.67 420.39,-26.67"/>
<text xml:space="preserve" text-anchor="middle" x="355.51" y="-27.37" font-family="Helvetica,Arial,sans-serif" font-size="14.00">a1 (KE6002)</text>
</g>
<!-- PEK -->
<g id="node4" class="node">
<title>PEK</title>
<polygon fill="none" stroke="black" points="654.98,-44.39 612.54,-44.39 612.54,-1.94 654.98,-1.94 654.98,-44.39"/>
<text xml:space="preserve" text-anchor="middle" x="633.76" y="-18.97" font-family="Helvetica,Arial,sans-serif" font-size="14.00">PEK</text>
</g>
<!-- ICN&#45;&gt;PEK -->
<g id="edge3" class="edge">
<title>ICN-&gt;PEK</title>
<path fill="none" stroke="black" d="M472.97,-23.17C503.77,-23.17 563.92,-23.17 600.99,-23.17"/>
<polygon fill="black" stroke="black" points="600.64,-26.67 610.64,-23.17 600.64,-19.67 600.64,-26.67"/>
<text xml:space="preserve" text-anchor="middle" x="550.15" y="-27.37" font-family="Helvetica,Arial,sans-serif" font-size="14.00">a1 (CA6003)</text>
</g>
<!-- DEN -->
<g id="node5" class="node">
<title>DEN</title>
<polygon fill="none" stroke="black" points="1144.59,-407.55 1099.81,-407.55 1099.81,-362.78 1144.59,-362.78 1144.59,-407.55"/>
<text xml:space="preserve" text-anchor="middle" x="1122.2" y="-380.97" font-family="Helvetica,Arial,sans-serif" font-size="14.00">DEN</text>
</g>
<!-- LAX -->
<g id="node6" class="node">
<title>LAX</title>
<polygon fill="none" stroke="black" points="1308.05,-455.55 1263.27,-455.55 1263.27,-410.78 1308.05,-410.78 1308.05,-455.55"/>
<text xml:space="preserve" text-anchor="middle" x="1285.66" y="-428.97" font-family="Helvetica,Arial,sans-serif" font-size="14.00">LAX</text>
</g>
<!-- DEN&#45;&gt;LAX -->
<g id="edge4" class="edge">
<title>DEN-&gt;LAX</title>
<path fill="none" stroke="black" d="M1144.97,-390.1C1169.49,-395.84 1210.43,-406.01 1244.88,-417.37 1247.29,-418.16 1249.76,-419.02 1252.24,-419.92"/>
<polygon fill="black" stroke="black" points="1250.94,-423.17 1261.53,-423.46 1253.43,-416.63 1250.94,-423.17"/>
<text xml:space="preserve" text-anchor="middle" x="1205.03" y="-421.57" font-family="Helvetica,Arial,sans-serif" font-size="14.00">a2 (UA5003)</text>
</g>
<!-- SFO -->
<g id="node22" class="node">
<title>SFO</title>
<polygon fill="none" stroke="black" points="1467.38,-454.01 1425.7,-454.01 1425.7,-412.32 1467.38,-412.32 1467.38,-454.01"/>
<text xml:space="preserve" text-anchor="middle" x="1446.54" y="-428.97" font-family="Helvetica,Arial,sans-serif" font-size="14.00">SFO</text>
</g>
<!-- LAX&#45;&gt;SFO -->
<g id="edge17" class="edge">
<title>LAX-&gt;SFO</title>
<path fill="none" stroke="black" d="M1308.42,-433.17C1335.85,-433.17 1383.19,-433.17 1414.43,-433.17"/>
<polygon fill="black" stroke="black" points="1414.03,-436.67 1424.03,-433.17 1414.03,-429.67 1414.03,-436.67"/>
<text xml:space="preserve" text-anchor="middle" x="1367.07" y="-437.37" font-family="Helvetica,Arial,sans-serif" font-size="14.00">a10 (UA4001)</text>
</g>
<!-- ORD -->
<g id="node7" class="node">
<title>ORD</title>
<polygon fill="none" stroke="black" points="979.32,-445.94 933.76,-445.94 933.76,-400.39 979.32,-400.39 979.32,-445.94"/>
<text xml:space="preserve" text-anchor="middle" x="956.54" y="-418.97" font-family="Helvetica,Arial,sans-serif" font-size="14.00">ORD</text>
</g>
<!-- ORD&#45;&gt;DEN -->
<g id="edge5" class="edge">
<title>ORD-&gt;DEN</title>
<path fill="none" stroke="black" d="M979.61,-418.04C1007.59,-411.55 1056.05,-400.29 1088.37,-392.79"/>
<polygon fill="black" stroke="black" points="1089.06,-396.22 1098,-390.55 1087.47,-389.4 1089.06,-396.22"/>
<text xml:space="preserve" text-anchor="middle" x="1039.37" y="-417.17" font-family="Helvetica,Arial,sans-serif" font-size="14.00">a3 (UA5002)</text>
</g>
<!-- ATL -->
<g id="node8" class="node">
<title>ATL</title>
<polygon fill="none" stroke="black" points="814.03,-481.77 770.81,-481.77 770.81,-438.56 814.03,-438.56 814.03,-481.77"/>
<text xml:space="preserve" text-anchor="middle" x="792.42" y="-455.97" font-family="Helvetica,Arial,sans-serif" font-size="14.00">ATL</text>
</g>
<!-- ATL&#45;&gt;ORD -->
<g id="edge6" class="edge">
<title>ATL-&gt;ORD</title>
<path fill="none" stroke="black" d="M814.28,-455.4C841.63,-449.16 889.91,-438.14 922.31,-430.75"/>
<polygon fill="black" stroke="black" points="923.02,-434.18 931.99,-428.54 921.46,-427.35 923.02,-434.18"/>
<text xml:space="preserve" text-anchor="middle" x="874.48" y="-454.44" font-family="Helvetica,Arial,sans-serif" font-size="14.00">a4 (DL3003)</text>
</g>
<!-- MIA -->
<g id="node9" class="node">
<title>MIA</title>
<polygon fill="none" stroke="black" points="655.37,-436.78 612.15,-436.78 612.15,-393.56 655.37,-393.56 655.37,-436.78"/>
<text xml:space="preserve" text-anchor="middle" x="633.76" y="-410.97" font-family="Helvetica,Arial,sans-serif" font-size="14.00">MIA</text>
</g>
<!-- MIA&#45;&gt;ATL -->
<g id="edge7" class="edge">
<title>MIA-&gt;ATL</title>
<path fill="none" stroke="black" d="M655.72,-419.4C678.9,-424.29 717.23,-433.02 749.44,-443.37 752.95,-444.49 756.59,-445.77 760.19,-447.11"/>
<polygon fill="black" stroke="black" points="758.7,-450.29 769.29,-450.66 761.25,-443.77 758.7,-450.29"/>
<text xml:space="preserve" text-anchor="middle" x="713.09" y="-447.57" font-family="Helvetica,Arial,sans-serif" font-size="14.00">a5 (DL3002)</text>
</g>
<!-- DXB -->
<g id="node10" class="node">
<title>DXB</title>
<polygon fill="none" stroke="black" points="1308.44,-245.94 1262.88,-245.94 1262.88,-200.39 1308.44,-200.39 1308.44,-245.94"/>
<text xml:space="preserve" text-anchor="middle" x="1285.66" y="-218.97" font-family="Helvetica,Arial,sans-serif" font-size="14.00">DXB</text>
</g>
<!-- SIN -->
<g id="node11" class="node">
<title>SIN</title>
<polygon fill="none" stroke="black" points="1465.82,-242.44 1427.26,-242.44 1427.26,-203.89 1465.82,-203.89 1465.82,-242.44"/>
<text xml:space="preserve" text-anchor="middle" x="1446.54" y="-218.97" font-family="Helvetica,Arial,sans-serif" font-size="14.00">SIN</text>
</g>
<!-- DXB&#45;&gt;SIN -->
<g id="edge8" class="edge">
<title>DXB-&gt;SIN</title>
<path fill="none" stroke="black" d="M1308.75,-223.17C1336.6,-223.17 1384.59,-223.17 1415.69,-223.17"/>
<polygon fill="black" stroke="black" points="1415.58,-226.67 1425.58,-223.17 1415.58,-219.67 1415.58,-226.67"/>
<text xml:space="preserve" text-anchor="middle" x="1367.07" y="-227.37" font-family="Helvetica,Arial,sans-serif" font-size="14.00">a6 (SQ9001)</text>
</g>
<!-- SYD -->
<g id="node12" class="node">
<title>SYD</title>
<polygon fill="none" stroke="black" points="1626.32,-245.17 1582.32,-245.17 1582.32,-201.16 1626.32,-201.16 1626.32,-245.17"/>
<text xml:space="preserve" text-anchor="middle" x="1604.32" y="-218.97" font-family="Helvetica,Arial,sans-serif" font-size="14.00">SYD</text>
</g>
<!-- SIN&#45;&gt;SYD -->
<g id="edge9" class="edge">
<title>SIN-&gt;SYD</title>
<path fill="none" stroke="black" d="M1466.02,-223.17C1491.75,-223.17 1538.77,-223.17 1570.52,-223.17"/>
<polygon fill="black" stroke="black" points="1570.36,-226.67 1580.36,-223.17 1570.36,-219.67 1570.36,-226.67"/>
<text xml:space="preserve" text-anchor="middle" x="1524.85" y="-227.37" font-family="Helvetica,Arial,sans-serif" font-size="14.00">a6 (SQ9002)</text>
</g>
<!-- FRA -->
<g id="node13" class="node">
<title>FRA</title>
<polygon fill="none" stroke="black" points="294.94,-348.78 251.71,-348.78 251.71,-305.55 294.94,-305.55 294.94,-348.78"/>
<text xml:space="preserve" text-anchor="middle" x="273.33" y="-322.97" font-family="Helvetica,Arial,sans-serif" font-size="14.00">FRA</text>
</g>
<!-- CDG -->
<g id="node14" class="node">
<title>CDG</title>
<polygon fill="none" stroke="black" points="475.22,-346.94 429.66,-346.94 429.66,-301.39 475.22,-301.39 475.22,-346.94"/>
<text xml:space="preserve" text-anchor="middle" x="452.44" y="-319.97" font-family="Helvetica,Arial,sans-serif" font-size="14.00">CDG</text>
</g>
<!-- FRA&#45;&gt;CDG -->
<g id="edge10" class="edge">
<title>FRA-&gt;CDG</title>
<path fill="none" stroke="black" d="M295.34,-326.81C325.63,-326.3 381.9,-325.34 417.96,-324.73"/>
<polygon fill="black" stroke="black" points="417.89,-328.23 427.83,-324.57 417.77,-321.24 417.89,-328.23"/>
<text xml:space="preserve" text-anchor="middle" x="355.51" y="-330.64" font-family="Helvetica,Arial,sans-serif" font-size="14.00">a7 (AF8001)</text>
</g>
<!-- JFK -->
<g id="node27" class="node">
<title>JFK</title>
<polygon fill="none" stroke="black" points="472.11,-403.84 432.77,-403.84 432.77,-364.49 472.11,-364.49 472.11,-403.84"/>
<text xml:space="preserve" text-anchor="middle" x="452.44" y="-379.97" font-family="Helvetica,Arial,sans-serif" font-size="14.00">JFK</text>
</g>
<!-- FRA&#45;&gt;JFK -->
<g id="edge24" class="edge">
<title>FRA-&gt;JFK</title>
<path fill="none" stroke="black" d="M295.03,-338.11C301.52,-341.29 308.79,-344.59 315.66,-347.17 351.3,-360.51 393.83,-371.31 421.68,-377.73"/>
<polygon fill="black" stroke="black" points="420.65,-381.08 431.17,-379.87 422.19,-374.25 420.65,-381.08"/>
<text xml:space="preserve" text-anchor="middle" x="355.51" y="-374.76" font-family="Helvetica,Arial,sans-serif" font-size="14.00">a14 (LH4001)</text>
</g>
<!-- ROM -->
<g id="node15" class="node">
<title>ROM</title>
<polygon fill="none" stroke="black" points="657.71,-348.11 609.81,-348.11 609.81,-300.22 657.71,-300.22 657.71,-348.11"/>
<text xml:space="preserve" text-anchor="middle" x="633.76" y="-319.97" font-family="Helvetica,Arial,sans-serif" font-size="14.00">ROM</text>
</g>
<!-- CDG&#45;&gt;ROM -->
<g id="edge11" class="edge">
<title>CDG-&gt;ROM</title>
<path fill="none" stroke="black" d="M475.43,-324.17C506.01,-324.17 561.72,-324.17 597.97,-324.17"/>
<polygon fill="black" stroke="black" points="597.94,-327.67 607.94,-324.17 597.94,-320.67 597.94,-327.67"/>
<text xml:space="preserve" text-anchor="middle" x="550.15" y="-328.37" font-family="Helvetica,Arial,sans-serif" font-size="14.00">a7 (AF8002)</text>
</g>
<!-- ATH -->
<g id="node16" class="node">
<title>ATH</title>
<polygon fill="none" stroke="black" points="814.81,-346.55 770.03,-346.55 770.03,-301.78 814.81,-301.78 814.81,-346.55"/>
<text xml:space="preserve" text-anchor="middle" x="792.42" y="-319.97" font-family="Helvetica,Arial,sans-serif" font-size="14.00">ATH</text>
</g>
<!-- ROM&#45;&gt;ATH -->
<g id="edge12" class="edge">
<title>ROM-&gt;ATH</title>
<path fill="none" stroke="black" d="M657.88,-324.17C684.47,-324.17 728.36,-324.17 758.51,-324.17"/>
<polygon fill="black" stroke="black" points="758.21,-327.67 768.21,-324.17 758.21,-320.67 758.21,-327.67"/>
<text xml:space="preserve" text-anchor="middle" x="713.09" y="-328.37" font-family="Helvetica,Arial,sans-serif" font-size="14.00">a7 (AZ8003)</text>
</g>
<!-- MAD -->
<g id="node17" class="node">
<title>MAD</title>
<polygon fill="none" stroke="black" points="297.66,-179.5 248.99,-179.5 248.99,-130.83 297.66,-130.83 297.66,-179.5"/>
<text xml:space="preserve" text-anchor="middle" x="273.33" y="-150.97" font-family="Helvetica,Arial,sans-serif" font-size="14.00">MAD</text>
</g>
<!-- BCN -->
<g id="node18" class="node">
<title>BCN</title>
<polygon fill="none" stroke="black" points="474.83,-116.56 430.05,-116.56 430.05,-71.77 474.83,-71.77 474.83,-116.56"/>
<text xml:space="preserve" text-anchor="middle" x="452.44" y="-89.97" font-family="Helvetica,Arial,sans-serif" font-size="14.00">BCN</text>
</g>
<!-- MAD&#45;&gt;BCN -->
<g id="edge13" class="edge">
<title>MAD-&gt;BCN</title>
<path fill="none" stroke="black" d="M297.84,-147.07C329.01,-136.33 384.11,-117.35 419.15,-105.29"/>
<polygon fill="black" stroke="black" points="420.02,-108.69 428.34,-102.12 417.74,-102.07 420.02,-108.69"/>
<text xml:space="preserve" text-anchor="middle" x="355.51" y="-144.62" font-family="Helvetica,Arial,sans-serif" font-size="14.00">a8 (IB7002)</text>
</g>
<!-- LIS -->
<g id="node19" class="node">
<title>LIS</title>
<polygon fill="none" stroke="black" points="652.26,-99.67 615.26,-99.67 615.26,-62.67 652.26,-62.67 652.26,-99.67"/>
<text xml:space="preserve" text-anchor="middle" x="633.76" y="-76.97" font-family="Helvetica,Arial,sans-serif" font-size="14.00">LIS</text>
</g>
<!-- BCN&#45;&gt;LIS -->
<g id="edge14" class="edge">
<title>BCN-&gt;LIS</title>
<path fill="none" stroke="black" d="M475.07,-92.6C507.21,-90.27 567.63,-85.89 603.63,-83.28"/>
<polygon fill="black" stroke="black" points="603.6,-86.79 613.32,-82.57 603.09,-79.81 603.6,-86.79"/>
<text xml:space="preserve" text-anchor="middle" x="550.15" y="-94.16" font-family="Helvetica,Arial,sans-serif" font-size="14.00">a8 (TP7003)</text>
</g>
<!-- RAK -->
<g id="node20" class="node">
<title>RAK</title>
<polygon fill="none" stroke="black" points="815.2,-191.94 769.64,-191.94 769.64,-146.39 815.2,-146.39 815.2,-191.94"/>
<text xml:space="preserve" text-anchor="middle" x="792.42" y="-164.97" font-family="Helvetica,Arial,sans-serif" font-size="14.00">RAK</text>
</g>
<!-- LIS&#45;&gt;RAK -->
<g id="edge15" class="edge">
<title>LIS-&gt;RAK</title>
<path fill="none" stroke="black" d="M652.48,-86.14C675.92,-93.23 717.94,-107.69 749.44,-128.37 753.98,-131.35 758.45,-134.86 762.69,-138.55"/>
<polygon fill="black" stroke="black" points="760.19,-141 769.89,-145.25 764.95,-135.88 760.19,-141"/>
<text xml:space="preserve" text-anchor="middle" x="713.09" y="-132.57" font-family="Helvetica,Arial,sans-serif" font-size="14.00">a8 (TP7004)</text>
</g>
<!-- TLS -->
<g id="node21" class="node">
<title>TLS</title>
<polygon fill="none" stroke="black" points="130.57,-283.61 89.68,-283.61 89.68,-242.72 130.57,-242.72 130.57,-283.61"/>
<text xml:space="preserve" text-anchor="middle" x="110.12" y="-258.97" font-family="Helvetica,Arial,sans-serif" font-size="14.00">TLS</text>
</g>
<!-- RAK&#45;&gt;TLS -->
<g id="edge26" class="edge">
<title>RAK-&gt;TLS</title>
<path fill="none" stroke="black" d="M770,-192.4C741.89,-220.24 689.63,-263.17 634.76,-263.17 272.33,-263.17 272.33,-263.17 272.33,-263.17 227.16,-263.17 174.88,-263.17 142.4,-263.17"/>
<polygon fill="black" stroke="black" points="142.49,-259.67 132.49,-263.17 142.49,-266.67 142.49,-259.67"/>
<text xml:space="preserve" text-anchor="middle" x="452.44" y="-267.37" font-family="Helvetica,Arial,sans-serif" font-size="14.00">a15 (FR1001)</text>
</g>
<!-- SOF -->
<g id="node26" class="node">
<title>SOF</title>
<polygon fill="none" stroke="black" points="977.38,-232.01 935.7,-232.01 935.7,-190.32 977.38,-190.32 977.38,-232.01"/>
<text xml:space="preserve" text-anchor="middle" x="956.54" y="-206.97" font-family="Helvetica,Arial,sans-serif" font-size="14.00">SOF</text>
</g>
<!-- RAK&#45;&gt;SOF -->
<g id="edge22" class="edge">
<title>RAK-&gt;SOF</title>
<path fill="none" stroke="black" d="M815.32,-173.33C839.55,-178.11 879.66,-186.59 913.56,-196.37 917.31,-197.45 921.22,-198.68 925.07,-199.96"/>
<polygon fill="black" stroke="black" points="923.6,-203.15 934.19,-203.11 925.89,-196.54 923.6,-203.15"/>
<text xml:space="preserve" text-anchor="middle" x="874.48" y="-200.57" font-family="Helvetica,Arial,sans-serif" font-size="14.00">a13 (FR1002)</text>
</g>
<!-- TLS&#45;&gt;FRA -->
<g id="edge23" class="edge">
<title>TLS-&gt;FRA</title>
<path fill="none" stroke="black" d="M130.92,-269.49C154.92,-277.34 196.44,-291.51 230.99,-306.37 234.39,-307.83 237.89,-309.43 241.37,-311.09"/>
<polygon fill="black" stroke="black" points="239.65,-314.14 250.17,-315.42 242.74,-307.86 239.65,-314.14"/>
<text xml:space="preserve" text-anchor="middle" x="191.14" y="-310.57" font-family="Helvetica,Arial,sans-serif" font-size="14.00">a14 (LH2001)</text>
</g>
<!-- TLS&#45;&gt;MAD -->
<g id="edge16" class="edge">
<title>TLS-&gt;MAD</title>
<path fill="none" stroke="black" d="M130.89,-247.47C137.31,-242.52 144.52,-237.1 151.29,-232.37 180.36,-212.01 214.53,-190.41 239.14,-175.26"/>
<polygon fill="black" stroke="black" points="240.74,-178.38 247.44,-170.17 237.08,-172.41 240.74,-178.38"/>
<text xml:space="preserve" text-anchor="middle" x="191.14" y="-236.57" font-family="Helvetica,Arial,sans-serif" font-size="14.00">a9 (IB7001)</text>
</g>
<!-- SEA -->
<g id="node23" class="node">
<title>SEA</title>
<polygon fill="none" stroke="black" points="1625.54,-454.39 1583.09,-454.39 1583.09,-411.94 1625.54,-411.94 1625.54,-454.39"/>
<text xml:space="preserve" text-anchor="middle" x="1604.32" y="-428.97" font-family="Helvetica,Arial,sans-serif" font-size="14.00">SEA</text>
</g>
<!-- SFO&#45;&gt;SEA -->
<g id="edge18" class="edge">
<title>SFO-&gt;SEA</title>
<path fill="none" stroke="black" d="M1467.59,-433.17C1493.85,-433.17 1540.21,-433.17 1571.34,-433.17"/>
<polygon fill="black" stroke="black" points="1571.34,-436.67 1581.34,-433.17 1571.34,-429.67 1571.34,-436.67"/>
<text xml:space="preserve" text-anchor="middle" x="1524.85" y="-437.37" font-family="Helvetica,Arial,sans-serif" font-size="14.00">a10 (AS5001)</text>
</g>
<!-- YVR -->
<g id="node24" class="node">
<title>YVR</title>
<polygon fill="none" stroke="black" points="1788.37,-455.94 1742.81,-455.94 1742.81,-410.39 1788.37,-410.39 1788.37,-455.94"/>
<text xml:space="preserve" text-anchor="middle" x="1765.59" y="-428.97" font-family="Helvetica,Arial,sans-serif" font-size="14.00">YVR</text>
</g>
<!-- SEA&#45;&gt;YVR -->
<g id="edge19" class="edge">
<title>SEA-&gt;YVR</title>
<path fill="none" stroke="black" d="M1625.81,-433.17C1652.41,-433.17 1699.17,-433.17 1730.99,-433.17"/>
<polygon fill="black" stroke="black" points="1730.87,-436.67 1740.87,-433.17 1730.87,-429.67 1730.87,-436.67"/>
<text xml:space="preserve" text-anchor="middle" x="1684.57" y="-437.37" font-family="Helvetica,Arial,sans-serif" font-size="14.00">a10 (AC6001)</text>
</g>
<!-- IST -->
<g id="node25" class="node">
<title>IST</title>
<polygon fill="none" stroke="black" points="1140.7,-269.67 1103.7,-269.67 1103.7,-232.67 1140.7,-232.67 1140.7,-269.67"/>
<text xml:space="preserve" text-anchor="middle" x="1122.2" y="-246.97" font-family="Helvetica,Arial,sans-serif" font-size="14.00">IST</text>
</g>
<!-- IST&#45;&gt;DXB -->
<g id="edge20" class="edge">
<title>IST-&gt;DXB</title>
<path fill="none" stroke="black" d="M1141.1,-248.06C1167.68,-243.45 1218.07,-234.71 1251.51,-228.91"/>
<polygon fill="black" stroke="black" points="1251.82,-232.41 1261.08,-227.26 1250.62,-225.52 1251.82,-232.41"/>
<text xml:space="preserve" text-anchor="middle" x="1205.03" y="-247.86" font-family="Helvetica,Arial,sans-serif" font-size="14.00">a11 (EK3002)</text>
</g>
<!-- SOF&#45;&gt;IST -->
<g id="edge21" class="edge">
<title>SOF-&gt;IST</title>
<path fill="none" stroke="black" d="M977.55,-214.46C1001.83,-218.64 1043.89,-226.53 1079.22,-236.37 1083.62,-237.59 1088.22,-239.04 1092.7,-240.54"/>
<polygon fill="black" stroke="black" points="1091.37,-243.78 1101.96,-243.79 1093.69,-237.18 1091.37,-243.78"/>
<text xml:space="preserve" text-anchor="middle" x="1039.37" y="-240.57" font-family="Helvetica,Arial,sans-serif" font-size="14.00">a12 (TK2002)</text>
</g>
<!-- JFK&#45;&gt;MIA -->
<g id="edge25" class="edge">
<title>JFK-&gt;MIA</title>
<path fill="none" stroke="black" d="M472.3,-385.37C498.95,-387.33 549.05,-391.99 590.78,-401.37 594.19,-402.13 597.71,-403.06 601.2,-404.07"/>
<polygon fill="black" stroke="black" points="600.02,-407.37 610.61,-407.03 602.12,-400.69 600.02,-407.37"/>
<text xml:space="preserve" text-anchor="middle" x="550.15" y="-405.57" font-family="Helvetica,Arial,sans-serif" font-size="14.00">a14 (AA3001)</text>
</g>
<!-- a15 -->
<g id="node28" class="node">
<title>a15</title>
<ellipse fill="none" stroke="black" cx="633.76" cy="-210.17" rx="24.98" ry="24.98"/>
<text xml:space="preserve" text-anchor="middle" x="633.76" y="-205.97" font-family="Helvetica,Arial,sans-serif" font-size="14.00">a15</text>
</g>
<!-- a15&#45;&gt;RAK -->
<g id="edge27" class="edge">
<title>a15-&gt;RAK</title>
<path fill="none" stroke="black" d="M658.21,-204.03C684.86,-197.05 728.52,-185.63 758.55,-177.77"/>
<polygon fill="black" stroke="black" points="759.08,-181.25 767.86,-175.33 757.3,-174.48 759.08,-181.25"/>
</g>
<!-- a14 -->
<g id="node29" class="node">
<title>a14</title>
<ellipse fill="none" stroke="black" cx="24.98" cy="-294.17" rx="24.98" ry="24.98"/>
<text xml:space="preserve" text-anchor="middle" x="24.98" y="-289.97" font-family="Helvetica,Arial,sans-serif" font-size="14.00">a14</text>
</g>
<!-- a14&#45;&gt;TLS -->
<g id="edge28" class="edge">
<title>a14-&gt;TLS</title>
<path fill="none" stroke="black" d="M48.7,-285.69C57.92,-282.26 68.72,-278.23 78.61,-274.54"/>
<polygon fill="black" stroke="black" points="79.7,-277.87 87.84,-271.1 77.25,-271.31 79.7,-277.87"/>
</g>
<!-- a13 -->
<g id="node30" class="node">
<title>a13</title>
<ellipse fill="none" stroke="black" cx="633.76" cy="-142.17" rx="24.98" ry="24.98"/>
<text xml:space="preserve" text-anchor="middle" x="633.76" y="-137.97" font-family="Helvetica,Arial,sans-serif" font-size="14.00">a13</text>
</g>
<!-- a13&#45;&gt;RAK -->
<g id="edge29" class="edge">
<title>a13-&gt;RAK</title>
<path fill="none" stroke="black" d="M658.9,-146.33C685.49,-150.91 728.44,-158.31 758.2,-163.44"/>
<polygon fill="black" stroke="black" points="757.34,-166.84 767.79,-165.09 758.53,-159.95 757.34,-166.84"/>
</g>
<!-- a12 -->
<g id="node31" class="node">
<title>a12</title>
<ellipse fill="none" stroke="black" cx="792.42" cy="-235.17" rx="24.98" ry="24.98"/>
<text xml:space="preserve" text-anchor="middle" x="792.42" y="-230.97" font-family="Helvetica,Arial,sans-serif" font-size="14.00">a12</text>
</g>
<!-- a12&#45;&gt;SOF -->
<g id="edge30" class="edge">
<title>a12-&gt;SOF</title>
<path fill="none" stroke="black" d="M817.34,-231.62C845.77,-227.42 893.28,-220.38 924.51,-215.76"/>
<polygon fill="black" stroke="black" points="924.73,-219.26 934.11,-214.34 923.71,-212.34 924.73,-219.26"/>
</g>
<!-- a11 -->
<g id="node32" class="node">
<title>a11</title>
<ellipse fill="none" stroke="black" cx="956.54" cy="-275.17" rx="24.98" ry="24.98"/>
<text xml:space="preserve" text-anchor="middle" x="956.54" y="-270.97" font-family="Helvetica,Arial,sans-serif" font-size="14.00">a11</text>
</g>
<!-- a11&#45;&gt;IST -->
<g id="edge31" class="edge">
<title>a11-&gt;IST</title>
<path fill="none" stroke="black" d="M981.69,-271.62C1011.18,-267.3 1061,-259.99 1092.44,-255.38"/>
<polygon fill="black" stroke="black" points="1092.62,-258.89 1102.01,-253.98 1091.61,-251.97 1092.62,-258.89"/>
</g>
<!-- a10 -->
<g id="node33" class="node">
<title>a10</title>
<ellipse fill="none" stroke="black" cx="1122.2" cy="-450.17" rx="24.98" ry="24.98"/>
<text xml:space="preserve" text-anchor="middle" x="1122.2" y="-445.97" font-family="Helvetica,Arial,sans-serif" font-size="14.00">a10</text>
</g>
<!-- a10&#45;&gt;LAX -->
<g id="edge32" class="edge">
<title>a10-&gt;LAX</title>
<path fill="none" stroke="black" d="M1147.37,-447.62C1175.14,-444.7 1220.86,-439.88 1251.83,-436.62"/>
<polygon fill="black" stroke="black" points="1251.83,-440.14 1261.41,-435.61 1251.1,-433.18 1251.83,-440.14"/>
</g>
<!-- a9 -->
<g id="node34" class="node">
<title>a9</title>
<ellipse fill="none" stroke="black" cx="24.98" cy="-231.17" rx="20.15" ry="20.15"/>
<text xml:space="preserve" text-anchor="middle" x="24.98" y="-226.97" font-family="Helvetica,Arial,sans-serif" font-size="14.00">a9</text>
</g>
<!-- a9&#45;&gt;TLS -->
<g id="edge33" class="edge">
<title>a9-&gt;TLS</title>
<path fill="none" stroke="black" d="M44.02,-238.11C54.16,-242.01 67.07,-246.98 78.72,-251.46"/>
<polygon fill="black" stroke="black" points="77.37,-254.7 87.96,-255.02 79.89,-248.16 77.37,-254.7"/>
</g>
<!-- a8 -->
<g id="node35" class="node">
<title>a8</title>
<ellipse fill="none" stroke="black" cx="110.12" cy="-155.17" rx="20.15" ry="20.15"/>
<text xml:space="preserve" text-anchor="middle" x="110.12" y="-150.97" font-family="Helvetica,Arial,sans-serif" font-size="14.00">a8</text>
</g>
<!-- a8&#45;&gt;MAD -->
<g id="edge34" class="edge">
<title>a8-&gt;MAD</title>
<path fill="none" stroke="black" d="M130.57,-155.17C156.97,-155.17 204.61,-155.17 237.32,-155.17"/>
<polygon fill="black" stroke="black" points="237.11,-158.67 247.11,-155.17 237.11,-151.67 237.11,-158.67"/>
</g>
<!-- a7 -->
<g id="node36" class="node">
<title>a7</title>
<ellipse fill="none" stroke="black" cx="110.12" cy="-328.17" rx="20.15" ry="20.15"/>
<text xml:space="preserve" text-anchor="middle" x="110.12" y="-323.97" font-family="Helvetica,Arial,sans-serif" font-size="14.00">a7</text>
</g>
<!-- a7&#45;&gt;FRA -->
<g id="edge35" class="edge">
<title>a7-&gt;FRA</title>
<path fill="none" stroke="black" d="M130.57,-328.04C157.72,-327.88 207.32,-327.57 240.05,-327.37"/>
<polygon fill="black" stroke="black" points="239.79,-330.87 249.77,-327.31 239.74,-323.87 239.79,-330.87"/>
</g>
<!-- a6 -->
<g id="node37" class="node">
<title>a6</title>
<ellipse fill="none" stroke="black" cx="1122.2" cy="-194.17" rx="20.15" ry="20.15"/>
<text xml:space="preserve" text-anchor="middle" x="1122.2" y="-189.97" font-family="Helvetica,Arial,sans-serif" font-size="14.00">a6</text>
</g>
<!-- a6&#45;&gt;DXB -->
<g id="edge36" class="edge">
<title>a6-&gt;DXB</title>
<path fill="none" stroke="black" d="M1142.36,-197.61C1169.14,-202.42 1218.18,-211.23 1251.1,-217.14"/>
<polygon fill="black" stroke="black" points="1250.48,-220.58 1260.94,-218.91 1251.72,-213.69 1250.48,-220.58"/>
</g>
<!-- a5 -->
<g id="node38" class="node">
<title>a5</title>
<ellipse fill="none" stroke="black" cx="452.44" cy="-442.17" rx="20.15" ry="20.15"/>
<text xml:space="preserve" text-anchor="middle" x="452.44" y="-437.97" font-family="Helvetica,Arial,sans-serif" font-size="14.00">a5</text>
</g>
<!-- a5&#45;&gt;MIA -->
<g id="edge37" class="edge">
<title>a5-&gt;MIA</title>
<path fill="none" stroke="black" d="M472.63,-439.28C503.2,-434.67 563.31,-425.62 600.55,-420.01"/>
<polygon fill="black" stroke="black" points="600.91,-423.5 610.28,-418.55 599.87,-416.58 600.91,-423.5"/>
</g>
<!-- a4 -->
<g id="node39" class="node">
<title>a4</title>
<ellipse fill="none" stroke="black" cx="633.76" cy="-475.17" rx="20.15" ry="20.15"/>
<text xml:space="preserve" text-anchor="middle" x="633.76" y="-470.97" font-family="Helvetica,Arial,sans-serif" font-size="14.00">a4</text>
</g>
<!-- a4&#45;&gt;ATL -->
<g id="edge38" class="edge">
<title>a4-&gt;ATL</title>
<path fill="none" stroke="black" d="M654.28,-473.3C680.54,-470.78 727.57,-466.28 759.13,-463.26"/>
<polygon fill="black" stroke="black" points="759.27,-466.76 768.89,-462.32 758.6,-459.79 759.27,-466.76"/>
</g>
<!-- a3 -->
<g id="node40" class="node">
<title>a3</title>
<ellipse fill="none" stroke="black" cx="792.42" cy="-400.17" rx="20.15" ry="20.15"/>
<text xml:space="preserve" text-anchor="middle" x="792.42" y="-395.97" font-family="Helvetica,Arial,sans-serif" font-size="14.00">a3</text>
</g>
<!-- a3&#45;&gt;ORD -->
<g id="edge39" class="edge">
<title>a3-&gt;ORD</title>
<path fill="none" stroke="black" d="M812.65,-402.89C839.62,-406.72 889.07,-413.73 922.12,-418.42"/>
<polygon fill="black" stroke="black" points="921.6,-421.88 931.99,-419.82 922.58,-414.95 921.6,-421.88"/>
</g>
<!-- a2 -->
<g id="node41" class="node">
<title>a2</title>
<ellipse fill="none" stroke="black" cx="956.54" cy="-362.17" rx="20.15" ry="20.15"/>
<text xml:space="preserve" text-anchor="middle" x="956.54" y="-357.97" font-family="Helvetica,Arial,sans-serif" font-size="14.00">a2</text>
</g>
<!-- a2&#45;&gt;DEN -->
<g id="edge40" class="edge">
<title>a2-&gt;DEN</title>
<path fill="none" stroke="black" d="M976.96,-364.89C1004.45,-368.76 1055.09,-375.87 1088.46,-380.56"/>
<polygon fill="black" stroke="black" points="1087.58,-383.98 1097.97,-381.9 1088.56,-377.04 1087.58,-383.98"/>
</g>
<!-- a1 -->
<g id="node42" class="node">
<title>a1</title>
<ellipse fill="none" stroke="black" cx="24.98" cy="-23.17" rx="20.15" ry="20.15"/>
<text xml:space="preserve" text-anchor="middle" x="24.98" y="-18.97" font-family="Helvetica,Arial,sans-serif" font-size="14.00">a1</text>
</g>
<!-- a1&#45;&gt;HND -->
<g id="edge41" class="edge">
<title>a1-&gt;HND</title>
<path fill="none" stroke="black" d="M45.26,-23.17C54.26,-23.17 65.22,-23.17 75.52,-23.17"/>
<polygon fill="black" stroke="black" points="75.19,-26.67 85.19,-23.17 75.19,-19.67 75.19,-26.67"/>
</g>
</g>
</svg>